<svg width="70" height="70" viewBox="0 0 70 70" fill="none" xmlns="http://www.w3.org/2000/svg">
<path d="M35 5.6001C19.314 5.6001 6.44479 17.9533 5.64102 33.4552C5.56706 34.467 6.04621 35.4398 6.8935 35.9979C7.74079 36.556 8.82369 36.6121 9.72416 36.1446C10.6246 35.6771 11.2018 34.7591 11.2328 33.745C11.885 21.1657 22.2436 11.2001 35 11.2001C42.9297 11.2001 49.924 15.0628 54.2473 21.0001H53.2C52.1902 20.9858 51.251 21.5163 50.7419 22.3885C50.2329 23.2607 50.2329 24.3394 50.7419 25.2116C51.251 26.0838 52.1902 26.6144 53.2 26.6001H64.4V15.4001C64.4103 14.6437 64.1143 13.9154 63.5791 13.3808C63.044 12.8461 62.3153 12.5507 61.559 12.5618C60.0137 12.5845 58.7789 13.8548 58.8 15.4001V17.738C53.4521 10.3797 44.7687 5.6001 35 5.6001V5.6001ZM32.0605 19.6001L31.3605 24.079C30.9405 24.219 30.3805 24.4996 29.9605 24.6396L26.1789 21.979L21.9789 26.179L24.5 29.679C24.22 30.099 24.0795 30.6612 23.9395 31.2212L19.6 31.9212V37.8001L23.9395 38.5001C24.0795 38.9201 24.36 39.4801 24.5 39.9001L21.9789 43.679L26.1789 47.879L29.9605 45.3606C30.5205 45.6406 30.94 45.7812 31.5 45.9212L32.0605 50.4001H37.9394L38.6394 45.9212C39.0594 45.7812 39.6194 45.5006 40.0394 45.3606L43.8211 47.879L48.0211 43.679L45.3605 40.0396C45.6405 39.6196 45.7811 39.0596 45.9211 38.6396L50.4 37.8001V31.9212L45.9211 31.2212C45.7811 30.8012 45.5005 30.2412 45.3605 29.8212L47.8789 26.0396L43.8211 21.979L40.1789 24.6396C39.7589 24.3596 39.1989 24.219 38.7789 24.079L37.9394 19.6001H32.0605ZM35 30.8001C37.38 30.8001 39.2 32.6201 39.2 35.0001C39.2 37.3801 37.38 39.2001 35 39.2001C32.62 39.2001 30.8 37.3801 30.8 35.0001C30.8 32.6201 32.62 30.8001 35 30.8001ZM61.6684 33.5618C60.1237 33.505 58.8252 34.7106 58.7672 36.2552C58.1149 48.8345 47.7564 58.8001 35 58.8001C27.0717 58.8001 20.0789 54.9384 15.7555 49.0028H16.8C17.8098 49.0171 18.749 48.4866 19.2581 47.6144C19.7671 46.7422 19.7671 45.6635 19.2581 44.7913C18.749 43.9191 17.8098 43.3885 16.8 43.4028L5.6 43.4001V54.6001C5.58572 55.6099 6.11625 56.5491 6.98845 57.0582C7.86065 57.5672 8.93936 57.5672 9.81156 57.0582C10.6838 56.5491 11.2143 55.6099 11.2 54.6001V52.2622C16.5479 59.6205 25.2313 64.4001 35 64.4001C50.686 64.4001 63.5552 52.0469 64.359 36.545C64.4089 35.7899 64.1511 35.0467 63.6443 34.4847C63.1374 33.9227 62.4247 33.5898 61.6684 33.5618H61.6684Z" fill="#fff"/>
</svg>
